<svg width="11" height="10" viewBox="0 0 11 10" fill="none" xmlns="http://www.w3.org/2000/svg">
<g id="Icon">
<path id="Icon_2" fill-rule="evenodd" clip-rule="evenodd" d="M5.79999 10C6.24182 10 6.59999 9.64183 6.59999 9.2V5.72727H10.0727C10.4744 5.72727 10.8 5.40166 10.8 5C10.8 4.59834 10.4744 4.27273 10.0727 4.27273H6.59999V0.8C6.59999 0.358172 6.24182 0 5.79999 0C5.35816 0 4.99999 0.358173 4.99999 0.8V4.27273H1.52726C1.1256 4.27273 0.799988 4.59834 0.799988 5C0.799988 5.40166 1.1256 5.72727 1.52726 5.72727H4.99999V9.2C4.99999 9.64183 5.35816 10 5.79999 10Z" fill="#595CFF"/>
</g>
</svg>
